<svg width="16" height="16" viewBox="0 0 2048 2048" fill="none" xmlns="http://www.w3.org/2000/svg">
    <path
        d="M2048 1024C2048 1589.54 1589.54 2048 1024 2048C458.46 2048 0 1589.54 0 1024C0 458.46 458.46 0 1024 0C1589.54 0 2048 458.46 2048 1024Z"
        fill="white" />
    <path fill-rule="evenodd" clip-rule="evenodd"
        d="M563.2 1024C563.2 1278.49 769.507 1484.8 1024 1484.8C1278.49 1484.8 1484.8 1278.49 1484.8 1024C1484.8 769.507 1278.49 563.2 1024 563.2C769.507 563.2 563.2 769.507 563.2 1024ZM1024 409.6C684.676 409.6 409.6 684.676 409.6 1024C409.6 1363.32 684.676 1638.4 1024 1638.4C1363.32 1638.4 1638.4 1363.32 1638.4 1024C1638.4 684.676 1363.32 409.6 1024 409.6Z"
        fill="black" />
    <path fill-rule="evenodd" clip-rule="evenodd"
        d="M870.4 1024C870.4 1108.83 939.169 1177.6 1024 1177.6C1108.83 1177.6 1177.6 1108.83 1177.6 1024C1177.6 939.169 1108.83 870.4 1024 870.4C939.169 870.4 870.4 939.169 870.4 1024ZM1024 716.8C854.338 716.8 716.8 854.338 716.8 1024C716.8 1193.66 854.338 1331.2 1024 1331.2C1193.66 1331.2 1331.2 1193.66 1331.2 1024C1331.2 854.338 1193.66 716.8 1024 716.8Z"
        fill="black" />
    <path d="M716.8 1024H832V1523.2H716.8V1024Z" fill="black" />
    <defs>
        <linearGradient id="paint0_linear" x1="1851.35" y1="-6.10603e-05" x2="824.878" y2="2259.88"
            gradientUnits="userSpaceOnUse">
            <stop stop-color="#4285F4" />
            <stop offset="1" stop-color="#0F69FF" />
        </linearGradient>
    </defs>
</svg>