<?xml version="1.0" encoding="utf-8"?>
<!-- Generator: Adobe Illustrator 24.2.0, SVG Export Plug-In . SVG Version: 6.00 Build 0)  -->
<svg version="1.2" baseProfile="tiny" id="Layer_1" xmlns="http://www.w3.org/2000/svg" xmlns:xlink="http://www.w3.org/1999/xlink"
	 x="0px" y="0px" viewBox="0 0 696 180" overflow="visible" xml:space="preserve">
<g>
	<path fill="#557EBF" d="M125.3,148.6v18.7c21.3,0,40.7-8.7,54.7-22.6l-13.2-13.2C156.1,142,141.5,148.6,125.3,148.6z"/>
	<path fill="#557EBF" d="M164.5,90c0-21.7-17.6-39.2-39.3-39.2S86,68.3,86,90v43.4C74.2,122.7,66.7,107.2,66.7,90
		c0-32.3,26.2-58.6,58.6-58.6c16.3,0,31.1,6.7,41.7,17.5l13.2-13.2c-14-14.2-33.4-23-54.9-23C82.6,12.7,48,47.3,48,90
		c0,28.3,15.3,53,38,66.5c6.1,3.6,12.8,6.4,19.9,8.3v-19.5v-21.1c5.7,3.2,12.3,5.1,19.3,5.1C147,129.2,164.5,111.7,164.5,90z
		 M106,90c0-10.7,8.7-19.3,19.3-19.3c10.7,0,19.3,8.7,19.3,19.3c0,10.7-8.7,19.3-19.3,19.3C114.6,109.3,106,100.7,106,90z"/>
</g>
<path fill="#557EBF" d="M188.5,86.7v35.5c0,2.5-0.9,4.7-2.8,6.6c-1.9,1.9-4.1,2.8-6.6,2.8c-2.5,0-4.7-0.9-6.6-2.8
	c-1.9-1.9-2.8-4.1-2.8-6.6V88.6c0-9.1,3.3-16.9,9.8-23.5c6.5-6.5,14.4-9.8,23.6-9.8c6.3,0,11.6,1.4,16.1,4.1
	c4.5,2.7,6.7,5.8,6.7,9.2c0,2.3-0.8,4.3-2.5,5.9c-1.7,1.6-3.7,2.4-6,2.4c-1.9,0-4.1-0.8-6.6-2.3c-2.5-1.5-5.2-2.3-7.9-2.3
	c-4.1,0-7.6,1.4-10.3,4.1C189.9,79.4,188.5,82.7,188.5,86.7z"/>
<path fill="#557EBF" d="M231.7,45.5c-2.3-2.2-3.4-4.9-3.4-8.1c0-3.1,1.1-5.8,3.4-8.1c2.2-2.2,4.9-3.4,8.1-3.4c3.1,0,5.8,1.1,8.1,3.4
	c2.2,2.3,3.4,4.9,3.4,8.1c0,3.1-1.1,5.8-3.4,8.1c-2.3,2.3-4.9,3.4-8.1,3.4C236.6,48.9,233.9,47.8,231.7,45.5z M249.2,66.2v56
	c0,2.5-0.9,4.7-2.8,6.6c-1.9,1.9-4.1,2.8-6.6,2.8c-2.5,0-4.7-0.9-6.6-2.8c-1.9-1.9-2.8-4.1-2.8-6.6v-56c0-2.5,0.9-4.7,2.8-6.6
	c1.9-1.9,4.1-2.8,6.6-2.8c2.5,0,4.7,0.9,6.6,2.8C248.2,61.5,249.2,63.7,249.2,66.2z"/>
<path fill="#557EBF" d="M312.4,122.2V93.3c0-5.8-1.9-10.7-5.6-14.7c-3.8-4.1-8.5-6.1-14.2-6.1c-5.7,0-10.4,2-14.2,6.1
	c-3.8,4.1-5.6,9-5.6,14.7v28.9c0,2.5-0.9,4.7-2.8,6.6c-1.9,1.9-4.1,2.8-6.6,2.8c-2.5,0-4.7-0.9-6.6-2.8c-1.9-1.9-2.8-4.1-2.8-6.6
	V93.3c0-10.7,3.7-19.7,11.2-27c7.5-7.3,16.6-11,27.4-11c10.7,0,19.8,3.7,27.3,11.1c7.5,7.4,11.3,16.4,11.3,26.9v28.9
	c0,2.5-0.9,4.7-2.8,6.6c-1.9,1.9-4.1,2.8-6.6,2.8c-2.5,0-4.7-0.9-6.6-2.8C313.3,127,312.4,124.8,312.4,122.2z"/>
<path fill="#557EBF" d="M375.4,116.8c1.7,1.7,2.5,3.7,2.5,6.2c0,2.4-0.8,4.5-2.5,6.2c-1.7,1.7-3.7,2.5-6.2,2.5h-7
	c-5.4,0-10.1-2-14.2-5.9c-4.1-3.9-6.2-8.6-6.2-13.9V75.6h-5c-2.4,0-4.5-0.8-6.2-2.5c-1.7-1.7-2.5-3.7-2.5-6.2c0-2.3,0.9-4.4,2.6-6.1
	c1.7-1.7,3.7-2.6,6.1-2.6h5V48c0-2.5,1-4.7,2.9-6.5c1.9-1.8,4.1-2.7,6.7-2.7c2.4,0,4.6,0.9,6.5,2.7c1.9,1.8,2.9,4,2.9,6.5v10.3H371
	c2.3,0,4.4,0.8,6.1,2.5c1.7,1.7,2.6,3.7,2.6,6.2c0,2.4-0.9,4.5-2.6,6.2c-1.7,1.7-3.7,2.5-6.1,2.5h-10.3v35.9c0,0.7,0.3,1.3,0.9,1.9
	c0.6,0.6,1.2,0.9,1.9,0.9h5.7C371.7,114.3,373.8,115.1,375.4,116.8z"/>
<path d="M426.8,72.5c-5.5,0-10.2,2.1-14.2,6.3c-4,4.2-5.9,9.1-5.9,14.8c0,5.9,2,10.8,6.1,14.9c4.1,4.1,9.1,6.1,15,6.1
	c3.7,0,7.2-0.9,10.4-2.8c2.1-1.2,4-1.8,5.9-1.8c2.3,0,4.4,0.9,6,2.6c1.7,1.7,2.5,3.8,2.5,6.2c0,3.2-1.8,6-5.3,8.4
	c-4.6,2.9-11.1,4.4-19.4,4.4c-11,0-20.2-3.7-27.9-11.1c-7.6-7.4-11.4-16.5-11.4-27.1c0-10.6,3.8-19.5,11.3-26.9
	c7.5-7.4,16.6-11.1,27.3-11.1c7.5,0,13.8,1.3,18.9,3.8c3.7,1.9,5.6,4.6,5.6,8.4c0,2.4-0.8,4.5-2.5,6.2c-1.7,1.7-3.7,2.6-6,2.6
	c-1.9,0-3.8-0.6-5.9-1.8C434.8,73.2,431.3,72.5,426.8,72.5z"/>
<path d="M532.2,65.2v57.6c0,2.3-1,4.4-3,6.2c-2,1.8-4.3,2.6-6.8,2.6c-2.3,0-4.1-0.8-5.6-2.4c-1.5-1.6-2.4-3.4-2.7-5.5
	c-6.2,5.3-13.2,7.9-21,7.9c-10.3,0-19-3.7-26.3-11.1c-7.2-7.4-10.9-16.5-10.9-27.1c0-10.6,3.7-19.5,11.1-26.9
	c7.4-7.4,16.3-11.1,26.5-11.1c8,0,14.7,2.6,20.1,7.8c0-1.8,0.9-3.5,2.6-5.2c1.7-1.7,3.7-2.6,6.1-2.6c2.5,0,4.8,1,6.8,2.9
	C531.2,60.2,532.2,62.5,532.2,65.2z M509,108.5c3.8-4.1,5.7-9.1,5.7-15.2c0-6.1-1.9-11-5.7-15c-3.8-3.9-8.7-5.9-14.5-5.9
	c-5.8,0-10.7,2.1-14.7,6.2c-4,4.1-6,9-6,14.7c0,5.8,2,10.8,5.9,15c4,4.2,8.9,6.3,14.7,6.3C500.3,114.6,505.2,112.6,509,108.5z"/>
<path d="M556,86.7v35.5c0,2.5-0.9,4.7-2.8,6.6c-1.9,1.9-4.1,2.8-6.6,2.8c-2.5,0-4.7-0.9-6.6-2.8c-1.9-1.9-2.8-4.1-2.8-6.6V88.6
	c0-9.1,3.3-16.9,9.8-23.5c6.5-6.5,14.4-9.8,23.6-9.8c6.3,0,11.6,1.4,16.1,4.1c4.5,2.7,6.7,5.8,6.7,9.2c0,2.3-0.8,4.3-2.5,5.9
	c-1.7,1.6-3.7,2.4-6,2.4c-1.9,0-4.1-0.8-6.6-2.3c-2.5-1.5-5.2-2.3-7.9-2.3c-4.1,0-7.6,1.4-10.3,4.1C557.4,79.4,556,82.7,556,86.7z"
	/>
<path d="M643.7,116.8c1.7,1.7,2.5,3.7,2.5,6.2c0,2.4-0.8,4.5-2.5,6.2c-1.7,1.7-3.7,2.5-6.2,2.5h-7c-5.4,0-10.1-2-14.2-5.9
	c-4.1-3.9-6.2-8.6-6.2-13.9V75.6h-5c-2.4,0-4.5-0.8-6.2-2.5c-1.7-1.7-2.5-3.7-2.5-6.2c0-2.3,0.9-4.4,2.6-6.1
	c1.7-1.7,3.7-2.6,6.1-2.6h5V48c0-2.5,1-4.7,2.9-6.5c1.9-1.8,4.1-2.7,6.7-2.7c2.4,0,4.6,0.9,6.5,2.7c1.9,1.8,2.9,4,2.9,6.5v10.3h10.3
	c2.3,0,4.4,0.8,6.1,2.5c1.7,1.7,2.6,3.7,2.6,6.2c0,2.4-0.9,4.5-2.6,6.2c-1.7,1.7-3.7,2.5-6.1,2.5h-10.3v35.9c0,0.7,0.3,1.3,0.9,1.9
	c0.6,0.6,1.2,0.9,1.9,0.9h5.7C640,114.3,642.1,115.1,643.7,116.8z"/>
</svg>
